<?xml version="1.0" encoding="UTF-8"?>
<svg version="1.1" xmlns="http://www.w3.org/2000/svg" width="500" height="500">
<path d="M0 0 C165 0 330 0 500 0 C500 165 500 330 500 500 C335 500 170 500 0 500 C0 335 0 170 0 0 Z " fill="#FEFEFE" transform="translate(0,0)"/>
<path d="M0 0 C34.98 0 69.96 0 106 0 C108.97 5.28 111.94 10.56 115 16 C131.92371767 37.53927703 152.76388659 52.11628311 180 57 C180.92538574 57.17055908 181.85077148 57.34111816 182.80419922 57.5168457 C197.63496485 59.75902181 213.91282355 59.25692195 228 54 C229.09828125 53.62617188 230.1965625 53.25234375 231.328125 52.8671875 C258.30943976 43.21273601 277.31834468 25.36331064 290 0 C324.98 0 359.96 0 396 0 C396 0.99 396 1.98 396 3 C379.5 3 363 3 346 3 C345.67 4.65 345.34 6.3 345 8 C337.08171159 29.62037008 325.99219583 48.34587553 310 65 C309.56107422 65.47002441 309.12214844 65.94004883 308.66992188 66.42431641 C294.75838606 81.29843763 276.99387095 93.51969774 258 101 C257.31905273 101.27054199 256.63810547 101.54108398 255.93652344 101.81982422 C236.552264 109.40227141 218.1675338 112.35204052 197.4375 112.375 C196.66913818 112.37708466 195.90077637 112.37916931 195.10913086 112.38131714 C185.56570526 112.37838298 176.39802647 111.83108396 167 110 C166.14543213 109.83387207 165.29086426 109.66774414 164.41040039 109.49658203 C151.8533908 106.88164585 140.46435627 102.70422992 129 97 C127.82695312 96.42121094 126.65390625 95.84242188 125.4453125 95.24609375 C114.37129861 89.52319209 104.3640194 82.62216124 95.2578125 74.1015625 C93.24815969 72.23098601 91.18239623 70.49226289 89.0625 68.75 C70.75526582 52.68973017 57.27376807 29.0335989 50 6 C50 5.01 50 4.02 50 3 C33.5 3 17 3 0 3 C0 2.01 0 1.02 0 0 Z " fill="#56A140" transform="translate(52,293)"/>
<path d="M0 0 C0.77730469 0.57621094 1.55460937 1.15242188 2.35546875 1.74609375 C27.87079043 21.10110938 47.23708 48.94832 55 80 C71.17 80 87.34 80 104 80 C104 80.33 104 80.66 104 81 C90.48335698 81.37134849 76.96793368 81.65531418 63.44722176 81.82899475 C57.16805538 81.91237433 50.892387 82.02536054 44.61523438 82.20703125 C38.55243737 82.38139216 32.49299431 82.47664175 26.42788315 82.51803589 C24.11900885 82.5475147 21.81031085 82.60509204 19.50287247 82.69168091 C1.87232206 83.32673411 1.87232206 83.32673411 -2.91483307 79.44888306 C-6.14023547 75.67141005 -8.17157059 71.50516212 -10.08574295 66.95457458 C-18.84538753 48.22747954 -41.71393591 35.84807755 -60.09375 28.81640625 C-70.71009771 25.08153135 -80.95292048 23.62643776 -92.1875 23.6875 C-93.28247803 23.69313965 -94.37745605 23.6987793 -95.50561523 23.70458984 C-123.96229909 24.12797131 -147.40139112 35.83659628 -167.52734375 55.46484375 C-174.97814375 63.32320887 -180.17930604 72.35861207 -185 82 C-219.98 82 -254.96 82 -291 82 C-291 81.01 -291 80.02 -291 79 C-274.83 78.67 -258.66 78.34 -242 78 C-240.02 72.72 -238.04 67.44 -236 62 C-234.2923328 58.34035701 -232.58846885 54.7979875 -230.6875 51.25 C-230.2123999 50.35659912 -229.7372998 49.46319824 -229.24780273 48.54272461 C-225.40831049 41.46970516 -221.1838528 35.17614145 -216 29 C-215.06489575 27.8517322 -214.13001154 26.70328517 -213.1953125 25.5546875 C-206.71713381 17.69912412 -199.84443662 10.50819068 -192 4 C-191.46632813 3.55591797 -190.93265625 3.11183594 -190.3828125 2.65429688 C-137.45444196 -40.52084106 -53.84374178 -42.91637029 0 0 Z " fill="#56A240" transform="translate(343,125)"/>
<path d="M0 0 C2.625 0.375 2.625 0.375 5 1 C5.185625 1.825 5.37125 2.65 5.5625 3.5 C7.2429967 7.59164414 9.51051401 9.90910091 12.63671875 12.97265625 C14 15 14 15 13.83203125 17.53515625 C12.88965384 20.32689403 11.4444136 22.64236164 9.921875 25.15234375 C8.46918703 28.06387514 8.26317379 30.77612102 8 34 C13.18352659 33.12143617 16.52070619 32.46334979 19.80078125 28.0390625 C21.32930968 25.44006628 22.54634614 22.73597859 23.8125 20 C26.53321327 14.44808763 29.13462301 10.40038545 35 8 C40.48892847 6.95926216 44.48538127 7.03879965 49.25 10.0625 C51 13 51 13 51.0625 16.5 C49.74717465 20.83283644 48.085967 23.69796013 44.19140625 26.12890625 C41.56673218 27.17222589 39.564536 27.19906674 36.75 27.125 C35.85796875 27.10695312 34.9659375 27.08890625 34.046875 27.0703125 C33.03367188 27.03550781 33.03367188 27.03550781 32 27 C33.08784968 30.24983135 33.08784968 30.24983135 35 33 C39.91077532 33.56413803 43.88636453 33.53619485 48.375 31.375 C53.36526007 26.8600028 55.5194285 22.13510696 57.1875 15.6875 C58.92067989 9.07932011 58.92067989 9.07932011 60 8 C62.33297433 7.95907063 64.66705225 7.95758277 67 8 C67 9.98 67 11.96 67 14 C67.4125 13.566875 67.825 13.13375 68.25 12.6875 C71.45791912 9.59414942 73.72222986 7.56713375 78.3125 7.5 C82 8 82 8 84 10 C84.265625 12.42578125 84.265625 12.42578125 84.25 15.3125 C84.25773437 16.72982422 84.25773437 16.72982422 84.265625 18.17578125 C83.98599562 21.14889946 83.15895499 23.26628174 82 26 C81.56111075 28.20254027 81.56111075 28.20254027 81.375 30.3125 C81.189375 32.1378125 81.189375 32.1378125 81 34 C86.39805653 32.29487066 87.83108254 29.77940683 90.50390625 24.99609375 C95.88350278 14.44897357 95.88350278 14.44897357 96 3 C96.66 2.01 97.32 1.02 98 0 C99.65 0.33 101.3 0.66 103 1 C103.433125 2.7015625 103.433125 2.7015625 103.875 4.4375 C104.24625 5.613125 104.6175 6.78875 105 8 C108.64535075 9.82267538 113.02591537 8.95061075 117.03125 8.83984375 C120 9 120 9 122 11 C121.70009767 14.81542407 119.47840281 17.38424886 117.25 20.375 C116.53328125 21.33792969 115.8165625 22.30085938 115.078125 23.29296875 C112.79304376 26.26958773 110.45439878 29.16210141 108 32 C109.55985209 33.55985209 111.08906098 33.24452344 113.25 33.3125 C116.43877877 33.25185761 117.91424272 33.0438315 120.8125 31.5625 C125.79547351 25.72530246 127.56556786 18.51279966 129.38671875 11.1875 C130 9 130 9 131 8 C133.33297433 7.95907063 135.66705225 7.95758277 138 8 C137.35215814 13.94650633 136.28016565 19.67387483 134.9375 25.5 C134.75123047 26.32242188 134.56496094 27.14484375 134.37304688 27.9921875 C133.91879115 29.9955717 133.45988401 31.9979003 133 34 C138.25479584 32.06083317 140.63662302 29.95398346 143.03125 24.765625 C145.2842425 19.26968875 147.19617048 13.65746532 149 8 C151.31 8 153.62 8 156 8 C157.16123695 11.48371085 156.77834768 12.69299551 155.85546875 16.18359375 C155.59056641 17.19357422 155.32566406 18.20355469 155.05273438 19.24414062 C154.76720703 20.29794922 154.48167969 21.35175781 154.1875 22.4375 C153.77661133 24.01241211 153.77661133 24.01241211 153.35742188 25.61914062 C151.09420928 34.13468156 151.09420928 34.13468156 149 38 C155.32738278 34.53500467 158.80278348 29.39443305 162 23 C162.99 23 163.98 23 165 23 C164.12854807 29.11105663 161.01121689 33.41575213 157 38 C154.67578125 39.59375 154.67578125 39.59375 152.3125 40.9375 C147.41167826 43.8398479 146.47496161 47.12940966 144.89453125 52.43359375 C143.62135665 56.08632611 142.03861828 57.66260132 139 60 C135.40735548 61.19754817 132.77282526 61.33094958 129 61 C126.5625 59.375 126.5625 59.375 125 57 C124.3690468 53.29314993 124.57713266 51.64432156 126.6484375 48.48828125 C129.31371404 45.66804677 131.56095264 44.60491156 135.125 43.125 C139.28661924 41.31210975 139.28661924 41.31210975 142.2265625 38.0625 C142.85959878 35.95401461 142.85959878 35.95401461 143 33 C142.2575 33.78375 141.515 34.5675 140.75 35.375 C137.01720013 38.93812715 135.64395293 40.02884128 130.4375 39.9375 C127 39 127 39 125.0625 36.4375 C124.711875 35.633125 124.36125 34.82875 124 34 C123.071875 34.804375 122.14375 35.60875 121.1875 36.4375 C116.9849569 40.07970402 113.47656686 40.18255223 108 40 C106.2675 39.7215625 106.2675 39.7215625 104.5 39.4375 C100.76385819 38.97048227 97.68830282 39.32255663 94 40 C93.22265625 37.7578125 93.22265625 37.7578125 93 35 C94.80859375 32.9296875 94.80859375 32.9296875 97.4375 30.875 C103.00948273 26.21465338 106.97689285 21.01218527 111 15 C109.6696875 15.0928125 109.6696875 15.0928125 108.3125 15.1875 C104.65514983 14.98048018 102.95222849 14.083926 100 12 C99.64808594 12.97839844 99.29617188 13.95679688 98.93359375 14.96484375 C95.37099531 24.54704725 91.24016037 34.55067466 82 40 C78.41774591 40.58485781 76.72302072 40.40785784 73.5625 38.625 C70.13514422 32.86704229 73.05602541 25.5022957 74.5625 19.375 C75.03460331 17.5814592 75.51123303 15.78907154 76 14 C70.94804766 15.2923599 68.31099548 16.96621898 65 21 C63.90799222 23.85777769 63.3167785 26.74911028 62.75 29.75 C61.07432432 37.92567568 61.07432432 37.92567568 60 39 C57.66702567 39.04092937 55.33294775 39.04241723 53 39 C52.67 37.35 52.34 35.7 52 34 C51.278125 34.61875 50.55625 35.2375 49.8125 35.875 C45.05794675 39.46732912 41.17440841 40.45203224 35.28515625 40.32421875 C31.45983829 39.78148133 29.13678428 38.2405602 26 36 C24 33 24 33 24 30 C23.34 30 22.68 30 22 30 C21.79375 30.556875 21.5875 31.11375 21.375 31.6875 C19.01478389 35.65695437 16.21447242 38.35671136 11.78125 39.64453125 C7.92208439 40.22983803 5.62344061 40.27275527 2 38.6875 C-0.61713688 36.47929076 -0.9308617 35.46421431 -1.4375 32.0625 C-1.44767438 27.20931981 1.3310331 23.60653089 3.8828125 19.6484375 C5.32435277 17.00685676 5.32435277 17.00685676 4.1796875 14.1640625 C3.79039062 13.44992188 3.40109375 12.73578125 3 12 C2.52820313 13.19496094 2.52820313 13.19496094 2.046875 14.4140625 C-2.34158335 25.27946238 -2.34158335 25.27946238 -6 30 C-6.53625 30.7425 -7.0725 31.485 -7.625 32.25 C-10.80015611 34.58958871 -13.77500011 34.87467251 -17.62109375 35.49609375 C-20.14635952 35.88210705 -20.14635952 35.88210705 -22.5 37.625 C-26.4346307 39.78904689 -30.5981092 39.40512977 -35 39 C-35.66 38.67 -36.32 38.34 -37 38 C-39.31993846 45.28640866 -41.47536437 52.50387484 -43 60 C-45.64 60 -48.28 60 -51 60 C-50.39235786 54.40308918 -49.41792679 49.07921153 -48.0390625 43.625 C-47.84782806 42.85623535 -47.65659363 42.0874707 -47.45956421 41.29541016 C-47.05673447 39.68138749 -46.65156163 38.06794795 -46.24414062 36.45507812 C-45.62707095 34.00821192 -45.0200839 31.55899797 -44.4140625 29.109375 C-44.01883249 27.53109879 -43.62301845 25.9529687 -43.2265625 24.375 C-42.95919785 23.293396 -42.95919785 23.293396 -42.68643188 22.18994141 C-41.44439469 17.31040341 -39.83561595 12.68948172 -38 8 C-35.125 7.8125 -35.125 7.8125 -32 8 C-31.01 9.485 -31.01 9.485 -30 11 C-29.34 10.505 -28.68 10.01 -28 9.5 C-23.88248556 7.44124278 -21.58746602 7.49028155 -17 8 C-14.02818585 10.18177201 -13.10619733 11.35278164 -12.50390625 15.0234375 C-12.69905816 26.18612648 -12.69905816 26.18612648 -16 31 C-12.98143775 30.43840702 -10.7249533 29.80756906 -8.62890625 27.47265625 C-3.32024234 19.38562619 -0.25760596 11.58316723 -2 2 C-1.34 1.34 -0.68 0.68 0 0 Z " fill="#258144" transform="translate(212,227)"/>
<path d="M0 0 C5.45749544 3.25751496 9.97451231 7.49769738 11.76953125 13.7421875 C11.88683594 14.32226562 12.00414062 14.90234375 12.125 15.5 C12.785 15.5 13.445 15.5 14.125 15.5 C14.351875 14.63375 14.57875 13.7675 14.8125 12.875 C17.68632144 5.48517345 22.34976979 1.97579247 29.39453125 -1.3671875 C38.9113066 -4.25709834 49.74201818 -3.6067817 59.125 -0.5 C58.50172699 3.04537114 57.06101289 5.24677282 54.9375 8.125 C52.4383441 11.57597292 50.20752243 15.03401657 48.125 18.75 C45.14220183 23.8416044 41.44929259 27.83785371 36.125 30.5 C29.37696323 31.08192025 24.11882954 30.69670909 18.125 27.5 C19.27192191 20.10433111 23.15150778 13.66249394 29.0625 9.0625 C32.57867459 6.67095929 36.1498415 4.99068444 40.125 3.5 C32.28930607 4.74376094 25.64421654 7.1245264 20.51953125 13.49609375 C16.86623423 19.16352519 14.90433226 25.01814677 13.125 31.5 C12.795 31.5 12.465 31.5 12.125 31.5 C11.97804687 30.73816406 11.83109375 29.97632813 11.6796875 29.19140625 C9.72284024 20.18316109 6.99877488 12.75591034 -0.9375 7.5 C-3.86109012 5.77813097 -6.53272002 5.05608124 -9.875 4.5 C-9.29492188 4.8403125 -8.71484375 5.180625 -8.1171875 5.53125 C-0.38794857 10.3269494 4.58818028 16.05093066 8.125 24.5 C8.125 25.49 8.125 26.48 8.125 27.5 C1.45543277 30.14890613 -4.88089492 32.11740903 -11.9375 29.83203125 C-18.99865085 26.23249927 -22.08644446 19.12214461 -25.875 12.5 C-27.82771465 9.46724406 -29.84752741 6.48309661 -31.875 3.5 C-32.535 2.51 -33.195 1.52 -33.875 0.5 C-23.83520344 -4.5808687 -10.23948322 -4.71504434 0 0 Z " fill="#1F7E40" transform="translate(236.875,176.5)"/>
<path d="M0 0 C2.475 0.495 2.475 0.495 5 1 C5.28875 2.134375 5.5775 3.26875 5.875 4.4375 C6.24625 5.613125 6.6175 6.78875 7 8 C10.64535075 9.82267538 15.02591537 8.95061075 19.03125 8.83984375 C22 9 22 9 24 11 C23.70009767 14.81542407 21.47840281 17.38424886 19.25 20.375 C18.53328125 21.33792969 17.8165625 22.30085938 17.078125 23.29296875 C14.79304376 26.26958773 12.45439878 29.16210141 10 32 C11.55985209 33.55985209 13.08906098 33.24452344 15.25 33.3125 C18.43877877 33.25185761 19.91424272 33.0438315 22.8125 31.5625 C27.79547351 25.72530246 29.56556786 18.51279966 31.38671875 11.1875 C32 9 32 9 33 8 C35.33297433 7.95907063 37.66705225 7.95758277 40 8 C39.35215814 13.94650633 38.28016565 19.67387483 36.9375 25.5 C36.75123047 26.32242188 36.56496094 27.14484375 36.37304688 27.9921875 C35.91879115 29.9955717 35.45988401 31.9979003 35 34 C40.25479584 32.06083317 42.63662302 29.95398346 45.03125 24.765625 C47.2842425 19.26968875 49.19617048 13.65746532 51 8 C53.31 8 55.62 8 58 8 C59.16123695 11.48371085 58.77834768 12.69299551 57.85546875 16.18359375 C57.59056641 17.19357422 57.32566406 18.20355469 57.05273438 19.24414062 C56.76720703 20.29794922 56.48167969 21.35175781 56.1875 22.4375 C55.77661133 24.01241211 55.77661133 24.01241211 55.35742188 25.61914062 C53.09420928 34.13468156 53.09420928 34.13468156 51 38 C57.32738278 34.53500467 60.80278348 29.39443305 64 23 C64.99 23 65.98 23 67 23 C66.12854807 29.11105663 63.01121689 33.41575213 59 38 C56.67578125 39.59375 56.67578125 39.59375 54.3125 40.9375 C49.41167826 43.8398479 48.47496161 47.12940966 46.89453125 52.43359375 C45.62135665 56.08632611 44.03861828 57.66260132 41 60 C37.40735548 61.19754817 34.77282526 61.33094958 31 61 C28.5625 59.375 28.5625 59.375 27 57 C26.3690468 53.29314993 26.57713266 51.64432156 28.6484375 48.48828125 C31.31371404 45.66804677 33.56095264 44.60491156 37.125 43.125 C41.28661924 41.31210975 41.28661924 41.31210975 44.2265625 38.0625 C44.85959878 35.95401461 44.85959878 35.95401461 45 33 C44.2575 33.78375 43.515 34.5675 42.75 35.375 C39.01720013 38.93812715 37.64395293 40.02884128 32.4375 39.9375 C29 39 29 39 27.0625 36.4375 C26.711875 35.633125 26.36125 34.82875 26 34 C24.6078125 35.2065625 24.6078125 35.2065625 23.1875 36.4375 C18.9849569 40.07970402 15.47656686 40.18255223 10 40 C8.2675 39.7215625 8.2675 39.7215625 6.5 39.4375 C2.76385819 38.97048227 -0.31169718 39.32255663 -4 40 C-4.77734375 37.7578125 -4.77734375 37.7578125 -5 35 C-3.19140625 32.9296875 -3.19140625 32.9296875 -0.5625 30.875 C5.00948273 26.21465338 8.97689285 21.01218527 13 15 C11.6696875 15.0928125 11.6696875 15.0928125 10.3125 15.1875 C6.65514983 14.98048018 4.95222849 14.083926 2 12 C1.64808594 12.97839844 1.29617188 13.95679688 0.93359375 14.96484375 C-2.62900469 24.54704725 -6.75983963 34.55067466 -16 40 C-19.58225409 40.58485781 -21.27697928 40.40785784 -24.4375 38.625 C-27.86485578 32.86704229 -24.94397459 25.5022957 -23.4375 19.375 C-22.96539669 17.5814592 -22.48876697 15.78907154 -22 14 C-23.98 14 -25.96 14 -28 14 C-26.5 11 -26.5 11 -24 8 C-21.05865055 7.30244677 -19.08020891 7.60255369 -16 8 C-14 10 -14 10 -13.734375 12.42578125 C-13.73953125 13.37839844 -13.7446875 14.33101562 -13.75 15.3125 C-13.74484375 16.25738281 -13.7396875 17.20226562 -13.734375 18.17578125 C-14.01400438 21.14889946 -14.84104501 23.26628174 -16 26 C-16.43888925 28.20254027 -16.43888925 28.20254027 -16.625 30.3125 C-16.74875 31.529375 -16.8725 32.74625 -17 34 C-11.60194347 32.29487066 -10.16891746 29.77940683 -7.49609375 24.99609375 C-2.11649722 14.44897357 -2.11649722 14.44897357 -2 3 C-1.34 2.01 -0.68 1.02 0 0 Z " fill="#238043" transform="translate(310,227)"/>
<path d="M0 0 C2.875 -0.1875 2.875 -0.1875 6 0 C6.66 0.99 7.32 1.98 8 3 C8.66 2.505 9.32 2.01 10 1.5 C14.11751444 -0.55875722 16.41253398 -0.50971845 21 0 C23.97181415 2.18177201 24.89380267 3.35278164 25.49609375 7.0234375 C25.30094184 18.18612648 25.30094184 18.18612648 22 23 C25.62709831 22.46920513 27.57034377 21.52928665 29.88671875 18.67578125 C31.11302206 16.87360385 32.3132239 15.05333996 33.484375 13.21484375 C35 11 35 11 37 10 C36.52124275 15.02695108 35.04726653 17.99502113 32 22 C31.46375 22.7425 30.9275 23.485 30.375 24.25 C27.19984389 26.58958871 24.22499989 26.87467251 20.37890625 27.49609375 C17.85364048 27.88210705 17.85364048 27.88210705 15.5 29.625 C11.5653693 31.78904689 7.4018908 31.40512977 3 31 C2.34 30.67 1.68 30.34 1 30 C-1.31993846 37.28640866 -3.47536437 44.50387484 -5 52 C-7.64 52 -10.28 52 -13 52 C-12.39235786 46.40308918 -11.41792679 41.07921153 -10.0390625 35.625 C-9.84782806 34.85623535 -9.65659363 34.0874707 -9.45956421 33.29541016 C-9.05673447 31.68138749 -8.65156163 30.06794795 -8.24414062 28.45507812 C-7.62707095 26.00821192 -7.0200839 23.55899797 -6.4140625 21.109375 C-6.01883249 19.53109879 -5.62301845 17.9529687 -5.2265625 16.375 C-4.95919785 15.293396 -4.95919785 15.293396 -4.68643188 14.18994141 C-3.44439469 9.31040341 -1.83561595 4.68948172 0 0 Z " fill="#227F42" transform="translate(174,235)"/>
<path d="M0 0 C1.01964844 -0.01675781 2.03929687 -0.03351563 3.08984375 -0.05078125 C6.49544454 0.36540912 8.32225692 1.27757166 11.0625 3.3125 C13.50019218 6.96903827 13.30194439 9.00250101 13.0625 13.3125 C12.0625 14.3125 12.0625 14.3125 9.5 14.375 C8.695625 14.354375 7.89125 14.33375 7.0625 14.3125 C6.4025 12.0025 5.7425 9.6925 5.0625 7.3125 C0.44742226 6.27035309 0.44742226 6.27035309 -3.9375 7.3125 C-4.66462549 12.24079496 -4.86050126 14.90768048 -2.07421875 19.1484375 C0.24951923 21.92475292 2.6291223 24.6320151 5.0625 27.3125 C8.31152762 31.13287894 9.73427987 34.31207831 9.4453125 39.359375 C8.50805471 44.14130249 5.76147807 46.78470023 2 49.625 C-2.99070609 52.49200137 -7.29158995 52.98775834 -12.9375 52.3125 C-16.61337156 51.01679048 -19.27729013 49.05789824 -21.875 46.125 C-23.83644664 40.93293537 -23.42464406 35.6014559 -21.9375 30.3125 C-19.9575 30.3125 -17.9775 30.3125 -15.9375 30.3125 C-15.91171875 31.06015625 -15.8859375 31.8078125 -15.859375 32.578125 C-15.58560005 38.57238912 -15.58560005 38.57238912 -13.3125 44 C-9.98907589 45.83662911 -7.67137127 45.78771998 -3.9375 45.3125 C-1.98366835 43.81624016 -1.09106083 42.78499487 -0.328125 40.4375 C0.05012669 34.72169665 -1.62241787 31.90618512 -5.25 27.5 C-6.8053104 25.76436376 -8.36724513 24.03462754 -9.9375 22.3125 C-13.63141037 17.75139623 -14.43727393 14.20983242 -13.9375 8.3125 C-10.44971146 1.71061455 -7.31894931 0.02768833 0 0 Z " fill="#258144" transform="translate(154.9375,214.6875)"/>
<path d="M0 0 C34.98 0 69.96 0 106 0 C106 0.99 106 1.98 106 3 C89.5 3 73 3 56 3 C56 2.34 56 1.68 56 1 C52.52060949 1.14076889 49.04154941 1.28855667 45.5625 1.4375 C44.10166992 1.49647461 44.10166992 1.49647461 42.61132812 1.55664062 C38.25617193 1.74599524 33.9492666 1.97024523 29.625 2.53125 C23.57932652 3.25787061 17.51713285 3.10623837 11.4375 3.0625 C10.23802734 3.05798828 9.03855469 3.05347656 7.80273438 3.04882812 C4.86843641 3.03713769 1.93424551 3.02075138 -1 3 C-0.67 2.01 -0.34 1.02 0 0 Z " fill="#A6D26C" transform="translate(342,293)"/>
<path d="M0 0 C1 1 1 1 1.1875 4.1875 C1.00651269 7.86757532 0.33113308 10.58897147 -1 14 C-1.99 14 -2.98 14 -4 14 C-4 15.65 -4 17.3 -4 19 C-6.98212913 20.49106457 -9.71609658 20.11941467 -13 20 C-13.33 19.67 -13.66 19.34 -14 19 C-13.94889593 12.21593503 -13.0626352 6.16824331 -8.1875 1.125 C-5.32150525 -0.34894016 -3.17739077 -0.28243473 0 0 Z " fill="#F8FBF9" transform="translate(190,241)"/>
<path d="M0 0 C1.50559539 1.96382007 2.89131683 3.78263366 4 6 C6.32156597 6.40729228 8.6568787 6.74438677 11 7 C10.175 7.66 9.35 8.32 8.5 9 C5.14694485 13.02366618 5.56839023 14.90700467 6 20 C5.46375 19.649375 4.9275 19.29875 4.375 18.9375 C0.37980731 17.36045025 -3.05410025 18.68470008 -7 20 C-6.95359375 19.39671875 -6.9071875 18.7934375 -6.859375 18.171875 C-6.52189688 12.91586667 -6.52189688 12.91586667 -9 8.4375 C-9.66 7.963125 -10.32 7.48875 -11 7 C-10 6 -10 6 -6.625 5.75 C-2.84777869 5.38364642 -2.84777869 5.38364642 -1.0625 2.4375 C-0.711875 1.633125 -0.36125 0.82875 0 0 Z " fill="#298348" transform="translate(209,300)"/>
<path d="M0 0 C2.2477975 2.05233685 3.0022242 3.00667261 4 6 C6.31 6.33 8.62 6.66 11 7 C10.34 7.66 9.68 8.32 9 9 C6.32094098 13.01858853 6.67817337 15.25305716 7 20 C6.01 19.4740625 6.01 19.4740625 5 18.9375 C0.9486909 17.67146591 -1.83374555 18.29385518 -6 19 C-5.9175 17.948125 -5.835 16.89625 -5.75 15.8125 C-6.03525487 11.46236331 -7.02449969 10.0684847 -10 7 C-7.29120665 5.64560332 -4.99066732 5.93498549 -2 6 C-1.855625 5.195625 -1.71125 4.39125 -1.5625 3.5625 C-1 1 -1 1 0 0 Z " fill="#278246" transform="translate(291,300)"/>
<path d="M0 0 C0.66 0 1.32 0 2 0 C2.37125 0.969375 2.7425 1.93875 3.125 2.9375 C4.71052362 6.31140969 4.71052362 6.31140969 8.1875 6.875 C9.115625 6.91625 10.04375 6.9575 11 7 C9.25 10.875 9.25 10.875 7 12 C7 14.64 7 17.28 7 20 C6.46375 19.649375 5.9275 19.29875 5.375 18.9375 C1.37980731 17.36045025 -2.05410025 18.68470008 -6 20 C-5.95359375 19.39671875 -5.9071875 18.7934375 -5.859375 18.171875 C-5.52189688 12.91586667 -5.52189688 12.91586667 -8 8.4375 C-8.66 7.963125 -9.32 7.48875 -10 7 C-8.72125 6.773125 -7.4425 6.54625 -6.125 6.3125 C-3.93067868 5.83899916 -3.93067868 5.83899916 -2 5 C-0.40311361 2.51686936 -0.40311361 2.51686936 0 0 Z " fill="#278246" transform="translate(249,300)"/>
<path d="M0 0 C0.7425 0.2475 1.485 0.495 2.25 0.75 C1.9375 3.625 1.9375 3.625 1.25 6.75 C-2.3941774 9.1794516 -4.46241272 8.91179575 -8.75 8.75 C-7.21419612 4.14258836 -5.47554607 -0.49777692 0 0 Z " fill="#F4F8F5" transform="translate(252.75,240.25)"/>
<path d="M0 0 C0.99 0 1.98 0 3 0 C4.32 3.3 5.64 6.6 7 10 C7.66 7.36 8.32 4.72 9 2 C9.66 2 10.32 2 11 2 C10.68950274 3.43793392 10.3765224 4.8753318 10.0625 6.3125 C9.88847656 7.11300781 9.71445312 7.91351563 9.53515625 8.73828125 C9 11 9 11 8 14 C7.34 14 6.68 14 6 14 C5.01 11.03 4.02 8.06 3 5 C2.34 5 1.68 5 1 5 C0.67 7.31 0.34 9.62 0 12 C-0.66 12 -1.32 12 -2 12 C-1.34 8.04 -0.68 4.08 0 0 Z " fill="#D5E8CD" transform="translate(273,121)"/>
<path d="M0 0 C5.625 1.125 5.625 1.125 8.8125 3.5625 C9.71935547 4.24505859 9.71935547 4.24505859 10.64453125 4.94140625 C11.09183594 5.29074219 11.53914062 5.64007813 12 6 C11.01 6 10.02 6 9 6 C6.84971696 6.94978897 6.84971696 6.94978897 5 8 C5 9.65 5 11.3 5 13 C4.34 13 3.68 13 3 13 C2.01 8.71 1.02 4.42 0 0 Z " fill="#A4CCA7" transform="translate(167,146)"/>
<path d="M0 0 C1.2065625 0.0309375 1.2065625 0.0309375 2.4375 0.0625 C2.81813221 2.3885857 3.15019945 4.72305264 3.4375 7.0625 C2.4375 8.0625 2.4375 8.0625 0 8.3125 C-0.845625 8.23 -1.69125 8.1475 -2.5625 8.0625 C-4.5625 5.0625 -4.5625 5.0625 -4.25 2.9375 C-3.2163408 0.11842946 -3.11381427 0.07594669 0 0 Z " fill="#9BC981" transform="translate(300.5625,365.9375)"/>
<path d="M0 0 C2.79872437 2.52788007 4.45773019 4.20411134 5 8 C4.01 7.67 3.02 7.34 2 7 C2 7.66 2 8.32 2 9 C0.35 9.66 -1.3 10.32 -3 11 C-6 6.25 -6 6.25 -6 4 C-3.83125748 4.50603992 -2.00032373 4.99983813 0 6 C0 4.02 0 2.04 0 0 Z " fill="#B6D8A0" transform="translate(314,358)"/>
<path d="M0 0 C1.65 0 3.3 0 5 0 C5.98120464 3.05263664 5.98120464 4.94736336 5 8 C3.35 8 1.7 8 0 8 C0 5.36 0 2.72 0 0 Z " fill="#A7CF98" transform="translate(263,376)"/>
<path d="M0 0 C1.32 0.33 2.64 0.66 4 1 C4 1.66 4 2.32 4 3 C5.32 3 6.64 3 8 3 C8 3.66 8 4.32 8 5 C6.68 5.33 5.36 5.66 4 6 C4.33 6.66 4.66 7.32 5 8 C0.25 6.125 0.25 6.125 -2 5 C-1.34 3.35 -0.68 1.7 0 0 Z " fill="#B9DA9B" transform="translate(350,321)"/>
<path d="M0 0 C-1.75 6.75 -1.75 6.75 -4 9 C-5.32 9 -6.64 9 -8 9 C-7.70100785 5.41209425 -7.23013399 4.21833224 -4.5625 1.6875 C-2 0 -2 0 0 0 Z " fill="#E8F2EB" transform="translate(352,273)"/>
<path d="M0 0 C2.31 0 4.62 0 7 0 C7 0.66 7 1.32 7 2 C5.35 2 3.7 2 2 2 C2 3.32 2 4.64 2 6 C3.65 6 5.3 6 7 6 C7 6.33 7 6.66 7 7 C5.02 7 3.04 7 1 7 C1 8.65 1 10.3 1 12 C2.65 12 4.3 12 6 12 C6 12.33 6 12.66 6 13 C4.02 13 2.04 13 0 13 C0 8.71 0 4.42 0 0 Z " fill="#F9FCF8" transform="translate(252,118)"/>
<path d="M0 0 C1.32 0.66 2.64 1.32 4 2 C3.34 3.32 2.68 4.64 2 6 C1.34 6 0.68 6 0 6 C0 6.99 0 7.98 0 9 C-0.66 8.67 -1.32 8.34 -2 8 C-2 7.01 -2 6.02 -2 5 C-2.99 5 -3.98 5 -5 5 C-3.35 3.35 -1.7 1.7 0 0 Z " fill="#A3CBA7" transform="translate(166,343)"/>
<path d="M0 0 C-0.99 0.33 -1.98 0.66 -3 1 C-2.649375 2.0725 -2.29875 3.145 -1.9375 4.25 C-1.05319814 7.78720743 -0.97119449 8.74811124 -2 12 C-2.17015625 11.28972656 -2.3403125 10.57945312 -2.515625 9.84765625 C-2.75796875 8.92855469 -3.0003125 8.00945312 -3.25 7.0625 C-3.48203125 6.14597656 -3.7140625 5.22945312 -3.953125 4.28515625 C-4.76632566 1.80848559 -4.76632566 1.80848559 -7.109375 1.18359375 C-7.73328125 1.12300781 -8.3571875 1.06242187 -9 1 C-5.57367167 -0.61798838 -3.61944899 -1.34053666 0 0 Z " fill="#D6E8D5" transform="translate(214,124)"/>
<path d="M0 0 C1.65 0 3.3 0 5 0 C5 2.64 5 5.28 5 8 C4.34 7.67 3.68 7.34 3 7 C3 6.34 3 5.68 3 5 C2.34 5 1.68 5 1 5 C0.67 5.99 0.34 6.98 0 8 C0 5.36 0 2.72 0 0 Z " fill="#B3D5A9" transform="translate(244,377)"/>
<path d="M0 0 C2.3431213 0.25561323 4.67843403 0.59270772 7 1 C7.33 1.66 7.66 2.32 8 3 C7.525625 3.45375 7.05125 3.9075 6.5625 4.375 C4.90972192 5.93258204 4.90972192 5.93258204 4 8 C0 2.25 0 2.25 0 0 Z " fill="#C4E0AB" transform="translate(342,332)"/>
<path d="M0 0 C0.66 0 1.32 0 2 0 C2 2.97 2 5.94 2 9 C1.67 8.01 1.34 7.02 1 6 C-0.98 6.33 -2.96 6.66 -5 7 C-4.21654285 5.82780457 -3.42297164 4.66236332 -2.625 3.5 C-2.18414062 2.8503125 -1.74328125 2.200625 -1.2890625 1.53125 C-0.65097656 0.77328125 -0.65097656 0.77328125 0 0 Z " fill="#B6D6B3" transform="translate(210,370)"/>
<path d="M0 0 C0.99 0 1.98 0 3 0 C2.125 4.75 2.125 4.75 1 7 C-0.64363134 7.72159424 -2.31050386 8.39351421 -4 9 C-2.80100302 5.9168649 -1.52299523 2.93720508 0 0 Z " fill="#31884E" transform="translate(374,250)"/>
<path d="M0 0 C0.66 0.33 1.32 0.66 2 1 C1.67 1.33 1.34 1.66 1 2 C2.65 2.33 4.3 2.66 6 3 C5.625 5.4375 5.625 5.4375 5 8 C4.01 8.495 4.01 8.495 3 9 C3.33 7.68 3.66 6.36 4 5 C2.35 4.67 0.7 4.34 -1 4 C-0.67 2.68 -0.34 1.36 0 0 Z " fill="#C0DDA8" transform="translate(330,345)"/>
<path d="M0 0 C0 0.99 0 1.98 0 3 C0.99 3.33 1.98 3.66 3 4 C2.34 5.32 1.68 6.64 1 8 C0.67 7.34 0.34 6.68 0 6 C-1.65 6 -3.3 6 -5 6 C-3.35 4.02 -1.7 2.04 0 0 Z " fill="#B2D3B8" transform="translate(143,311)"/>
<path d="M0 0 C-2.28459758 2.28459758 -4.12537344 2.97129748 -7.125 4.125 C-8.03507812 4.47820312 -8.94515625 4.83140625 -9.8828125 5.1953125 C-10.58148438 5.46085938 -11.28015625 5.72640625 -12 6 C-11.671875 4.078125 -11.671875 4.078125 -11 2 C-7.26602153 0.30273706 -4.07842654 -0.23990744 0 0 Z " fill="#D2E5D8" transform="translate(279,179)"/>
<path d="M0 0 C5.02692063 0.45699278 8.14896261 2.99241748 12 6 C7.75354935 6 5.61475228 4.18249194 2 2 C2.33 2.99 2.66 3.98 3 5 C2.01 5.495 2.01 5.495 1 6 C0.67 4.02 0.34 2.04 0 0 Z " fill="#DBEADC" transform="translate(167,146)"/>
<path d="M0 0 C0.6875 1.8125 0.6875 1.8125 1 4 C-0.84159673 6.48615558 -2.00470711 7.00156904 -5 8 C-3.375 2.25 -3.375 2.25 0 0 Z " fill="#32884F" transform="translate(306,248)"/>
<path d="M0 0 C2.31 0 4.62 0 7 0 C7 0.66 7 1.32 7 2 C5.35 2 3.7 2 2 2 C1.67 3.32 1.34 4.64 1 6 C0.67 4.02 0.34 2.04 0 0 Z " fill="#C6E0BE" transform="translate(252,118)"/>
<path d="M0 0 C1.50559539 1.96382007 2.89131683 3.78263366 4 6 C3.01 6.99 2.02 7.98 1 9 C0 8 0 8 -0.09765625 6.15234375 C-0.06510417 4.1015625 -0.03255208 2.05078125 0 0 Z " fill="#BCDAB8" transform="translate(219,373)"/>
</svg>
